<?xml version="1.0" ?>
<svg xmlns="http://www.w3.org/2000/svg" width="640" height="640" viewBox="-320 -320 640 640">
  <defs>
    <linearGradient id="knitGradient" x1="-1" y1="0" x2="1" y2="0" gradientUnits="objectBoundingBox">
      <stop offset="0%" stop-color="#5BA2C6"/>
      <stop offset="50%" stop-color="#B7E3F5"/>
      <stop offset="100%" stop-color="#5BA2C6"/>
    </linearGradient>
    <g id="stitch">
      <ellipse cx="-10" cy="0" rx="9" ry="20" transform="rotate(45 -10 0)"/>
      <ellipse cx="10" cy="0" rx="9" ry="20" transform="rotate(-45 10 0)"/>
    </g>
  </defs>
  <g fill="url(#knitGradient)" transform="scale(1.05,1.05)">
    <use href="#stitch" transform="translate(-132.0,-72.0)"/>
    <use href="#stitch" transform="translate(-132.0,-36.0)"/>
    <use href="#stitch" transform="translate(-132.0,0.0)"/>
    <use href="#stitch" transform="translate(-132.0,36.0)"/>
    <use href="#stitch" transform="translate(-132.0,72.0)"/>
    <use href="#stitch" transform="translate(-88.0,-108.0)"/>
    <use href="#stitch" transform="translate(-88.0,-72.0)"/>
    <use href="#stitch" transform="translate(-88.0,-36.0)"/>
    <use href="#stitch" transform="translate(-88.0,0.0)"/>
    <use href="#stitch" transform="translate(-88.0,36.0)"/>
    <use href="#stitch" transform="translate(-88.0,72.0)"/>
    <use href="#stitch" transform="translate(-88.0,108.0)"/>
    <use href="#stitch" transform="translate(-44.0,-144.0)"/>
    <use href="#stitch" transform="translate(-44.0,-108.0)"/>
    <use href="#stitch" transform="translate(-44.0,-72.0)"/>
    <use href="#stitch" transform="translate(-44.0,-36.0)"/>
    <use href="#stitch" transform="translate(-44.0,0.0)"/>
    <use href="#stitch" transform="translate(-44.0,36.0)"/>
    <use href="#stitch" transform="translate(-44.0,72.0)"/>
    <use href="#stitch" transform="translate(-44.0,108.0)"/>
    <use href="#stitch" transform="translate(-44.0,144.0)"/>
    <use href="#stitch" transform="translate(0.0,-180.0)"/>
    <use href="#stitch" transform="translate(0.0,-144.0)"/>
    <use href="#stitch" transform="translate(0.0,-108.0)"/>
    <use href="#stitch" transform="translate(0.0,-72.0)"/>
    <use href="#stitch" transform="translate(0.0,-36.0)"/>
    <use href="#stitch" transform="translate(0.0,0.0)"/>
    <use href="#stitch" transform="translate(0.0,36.0)"/>
    <use href="#stitch" transform="translate(0.0,72.0)"/>
    <use href="#stitch" transform="translate(0.0,108.0)"/>
    <use href="#stitch" transform="translate(0.0,144.0)"/>
    <use href="#stitch" transform="translate(0.0,180.0)"/>
    <use href="#stitch" transform="translate(44.0,-144.0)"/>
    <use href="#stitch" transform="translate(44.0,-108.0)"/>
    <use href="#stitch" transform="translate(44.0,-72.0)"/>
    <use href="#stitch" transform="translate(44.0,-36.0)"/>
    <use href="#stitch" transform="translate(44.0,0.0)"/>
    <use href="#stitch" transform="translate(44.0,36.0)"/>
    <use href="#stitch" transform="translate(44.0,72.0)"/>
    <use href="#stitch" transform="translate(44.0,108.0)"/>
    <use href="#stitch" transform="translate(44.0,144.0)"/>
    <use href="#stitch" transform="translate(88.0,-108.0)"/>
    <use href="#stitch" transform="translate(88.0,-72.0)"/>
    <use href="#stitch" transform="translate(88.0,-36.0)"/>
    <use href="#stitch" transform="translate(88.0,0.0)"/>
    <use href="#stitch" transform="translate(88.0,36.0)"/>
    <use href="#stitch" transform="translate(88.0,72.0)"/>
    <use href="#stitch" transform="translate(88.0,108.0)"/>
    <use href="#stitch" transform="translate(132.0,-72.0)"/>
    <use href="#stitch" transform="translate(132.0,-36.0)"/>
    <use href="#stitch" transform="translate(132.0,0.0)"/>
    <use href="#stitch" transform="translate(132.0,36.0)"/>
    <use href="#stitch" transform="translate(132.0,72.0)"/>
  </g>
</svg>
