<?xml version="1.0" encoding="UTF-8" standalone="no"?>
<!-- Created with Inkscape (http://www.inkscape.org/) -->

<svg
   version="1.1"
   id="svg2893"
   width="720"
   height="820"
   viewBox="0 0 720 820"
   sodipodi:docname="ChatGPT Image Aug 7, 2025, 10_28_04 PM.png"
   inkscape:export-filename="logo.svg"
   inkscape:export-xdpi="96"
   inkscape:export-ydpi="96"
   xmlns:inkscape="http://www.inkscape.org/namespaces/inkscape"
   xmlns:sodipodi="http://sodipodi.sourceforge.net/DTD/sodipodi-0.dtd"
   xmlns="http://www.w3.org/2000/svg"
   xmlns:svg="http://www.w3.org/2000/svg">
  <defs
     id="defs2897" />
  <sodipodi:namedview
     id="namedview2895"
     pagecolor="#ffffff"
     bordercolor="#000000"
     borderopacity="0.25"
     inkscape:showpageshadow="2"
     inkscape:pageopacity="0.0"
     inkscape:pagecheckerboard="0"
     inkscape:deskcolor="#d1d1d1"
     showgrid="false"
     inkscape:zoom="0.76367187"
     inkscape:cx="493.01279"
     inkscape:cy="519.85678"
     inkscape:window-width="1920"
     inkscape:window-height="1011"
     inkscape:window-x="0"
     inkscape:window-y="0"
     inkscape:window-maximized="1"
     inkscape:current-layer="g2899" />
  <g
     inkscape:groupmode="layer"
     inkscape:label="Image"
     id="g2899"
     transform="translate(-150,-80)">
    <path
       fill="currentColor" stroke="none"
       d="m 247.80052,87.514063 c -3.73,3.73 -14.793,11.389 -14.793,16.999997 0,4.374 6.99,9.197 9.793,12 10.553,10.553 20.795,23.403 33.00002,32 v 1 c -6.697,4.717 -12.20502,11.229 -18.00002,17 -1.997,1.989 -4.859,5.944 -8,5.944 -4.029,0 -8.421,-6.366 -11,-8.944 -8.176,-8.175 -16.817,-15.82 -25,-24 -2.425,-2.424 -6.188,-7.793 -10,-7.793 -5.18,0 -17.137,12.65 -14.338,17.793 2.876,5.284 9.115,9.777 13.338,14 8.589,8.589 18.059,21.544 29,27 v 2 c -10.656,4.969 -20.612,18.053 -28.08,27 -34.43,41.246 -40.52,95.464 -12.611,142 8.07,13.456 18.656,24.965 29.691,36 3.366,3.366 12.561,9.659 13.23,14.576 0.639,4.696 -11.055,12.152 -13.945,15.424 -11.888,13.458 -23.85,27.138 -30.681,44 -15.738,38.852 -12.329,83.17 11.831,118 11.146,16.068 26.905,27.754 38.565,43 -7.522,3.561 -26.219,19.564 -27.744,28 -0.907,5.018 11.767,17.616 16.744,15.248 12.312,-5.857 24.351,-23.599 34,-33.248 l 57.00002,-57 c 12.249,-12.249 26.221,-24.201 32.135,-41 11.383,-32.334 -10.101,-72.858 -46.135,-76 5.752,-8.166 13.942,-14.948 21,-22 2.197,-2.195 5.542,-6.944 9,-6.944 6.336,0 16.715,14.657 21,18.944 21.954,21.962 38.025,51.036 34.829,83 -3.241,32.418 -25.96,56.131 -47.829,78 l -55,55 -23.00002,23 c -2.424,2.425 -7.793,6.188 -7.793,10 0,5.611 11.06302,13.27 14.79302,17 h 1 l 27,-28 h 1 c 12.725,18.064 32.368,33.368 48,49 13.045,13.045 25.939,30.029 41,40.663 5.613,3.962 18.798,-7.565 18.079,-13.663 -0.79,-6.691 -13.801,-16.48 -18.655,-20.884 -17.498,-15.879 -33.716,-33.408 -50.424,-50.116 -4.45,-4.45 -19.944,-15.451 -19.944,-22 0,-6.599 14.16,-15.629 17.944,-21 h 1 l 43,43.004 52,50.996 v 1 l -49,47 v 1 l 16,16 h 1 l 35,-35 14,-12.793 8,4.795 18,17.998 5.793,9 -12.793,14 -34,34 v 1 l 15,15 17.09,-15.039 32.91,-33.961 h 1 c 9.113,12.938 22.812,23.812 34,35 4.642,4.642 10.024,12.405 16,15.248 5.364,2.552 21.801,-13.884 19.248,-19.248 -2.17,-4.562 -7.735,-8.454 -11.244,-12 -8.133,-8.218 -15.827,-16.823 -24.004,-25 l -74,-74 c -20.473,-20.473 -40.392,-37.934 -47.625,-67 -9.111,-36.613 3.132,-70.234 28.535,-96.985 4.482,-4.721 16.165,-22.293 23.09,-21.384 3.776,0.496 7.486,5.855 10,8.369 l 23,23 c -37.714,5.57 -59.284,51.984 -41.88,85 10.8,20.487 32.658,36.778 48.88,53 34.18,34.18 68.827,67.827 103,102 h 1 c 6.231,-6.231 19.476,-14.345 9,-22 v -1 c 21.59,-15.209 39.557,-38.171 58.015,-57.001 14.585,-14.879 32.989,-28.969 44.985,-45.999 h 1 c 4.774,6.778 17.799,23.61 26,25.654 4.964,1.238 17.566,-11.782 15.248,-16.654 -5.523,-11.61 -22.154,-22.906 -31.248,-32 l -54,-54 c -20.694,-20.694 -40.463,-40.105 -46.195,-70 -6.651,-34.684 7.948,-65.714 32.195,-90 4.444,-4.451 15.456,-19.944 22,-19.944 3.458,0 6.803,4.749 9,6.944 7.058,7.051 15.248,13.834 21,22 -36.336,3.173 -56.755,44.93 -45.302,77 5.802,16.245 18.431,27.133 30.302,39 19.5,19.492 39.49,38.49 59,58 9.649,9.649 21.688,27.391 34,33.248 4.872,2.318 17.892,-10.284 16.654,-15.248 -0.868,-3.484 -5.233,-6.578 -7.654,-9 -6.416,-6.419 -12.57,-13.766 -20,-19 v -1 c 51.256,-36.106 76.81,-108.479 48.031,-166 -7.202,-14.395 -17.727,-26.695 -29.031,-38 -3.287,-3.287 -12.944,-9.983 -12.944,-15 0,-5.018 9.657,-11.712 12.944,-15 11.454,-11.458 22.613,-23.847 30.664,-38 27.466,-48.289 18.396,-107.75 -20.665,-147 -6.59,-6.622 -13.466,-16.021 -21.999,-20 v -2 c 11.737,-5.474 21.88,-19.88 31,-29 3.8,-3.8 9.914,-8.093 12.248,-13 2.273,-4.777 -9.506,-16.793 -14.248,-16.793 -4.374,0 -9.197,6.99 -12,9.793 l -22,22 c -2.661,2.661 -6.209,7.798 -10,8.793 -5.739,1.507 -17.302,-13.961 -20.991,-17.793 -1.752,-1.821 -4.557,-4.14 -3.802,-6.999 1.238,-4.694 8.464,-8.768 11.793,-12.016 10.118,-9.87 20.005,-19.99 30,-29.985 v -1 c -5.496,-5.495997 -11.332,-13.847997 -19,-15.999997 l -30,30.999997 -12,9.944 -8,-5.944 -17,-17 -10,-6.653997 -16,14.653997 v 1 c 27.305,27.305 54.092,55.274 82,81.961 24.953,23.86 52.546,46.989 61.102,82.039 8.58,35.151 -6.306,69.164 -31.102,94 -4.444,4.451 -15.456,19.944 -22,19.944 -4.029,0 -8.422,-6.366 -11,-8.944 -8.647,-8.647 -18.137,-16.636 -26,-26 40.037,-1.745 60.896,-47.748 47.384,-82 -7.471,-18.94 -26.341,-32.957 -40.384,-47 -28.851,-28.851 -58.14,-57.14 -87,-86 h -1 l -15,16 h -1 c -2.69,-3.819 -10.587,-15.004 -16,-13.654 -3.484,0.868 -6.578,5.233 -9,7.654 l -20,20 -52,52 c -8.965,8.965 -19.694,17.629 -27,28 h -1 c -6.892,-9.582 -17.615,-17.615 -26,-26 l -53,-53 -21,-21 c -2.422,-2.421 -5.516,-6.786 -9,-7.654 -5.413,-1.35 -13.31,9.835 -16,13.654 h -1 c -3.22,-4.572 -12.525,-17.637 -19,-14.199 -5.681,3.016 -10.491,9.69 -15,14.199 l -31,31 -48,48 c -10.19902,10.199 -21.66402,20.088 -28.51102,33 -13.472,25.406 -5.888,57.862 16.511,75.482 8.82102,6.939 18.59602,9.213 29.00002,12.518 -10.907,9.004 -29.04402,23.228 -35.00002,36 -11.751,-8.277 -23.026,-19.995 -32.246,-31 -7.472,-8.918 -14.177,-18.148 -18.553,-29 -3.337,-8.274 -6.138,-17.073 -7.03,-26 -5.98,-59.8 49.168,-98.339 86.82902,-136 l 43,-43 c 3.511,-3.511 13.793,-10.641 13.793,-16 0,-4.742 -12.016,-16.520997 -16.793,-14.248 -10.372,4.934 -24.424,21.912 -31,31.248 h -1 c -10.655,-15.126 -28.87402,-33.344997 -44.00002,-43.999997 M 517.80054,477.51406 c 39.1,-3.435 62.497,-54.979 38.761,-85.996 -16.036,-20.954 -38.796,-38.718 -57.765,-57.043 -30.49,-29.457 -60.018,-59.983 -89.996,-89.961 -11.748,-11.748 -23.408,-23.625 -35.514,-35.004 -6.338,-5.958 -14.761,-12.007 -18.486,-19.996 8.177,-5.76 14.911,-13.962 22,-20.999 2.195,-2.179 5.417,-6.549 9,-5.655 5.891,1.468 11.72,10.737 16.039,14.824 15.016,14.209 29.343,29.212 43.961,43.83 34.84,34.84 70.178,69.178 105,104 27.818,27.818 53.901,50.737 57.83,92 2.777,29.16 -12.918,58.056 -32.83,78 -4.177,4.184 -13.75,17.793 -20,17.793 -4.103,0 -8.38,-6.177 -11,-8.793 -8.917,-8.902 -19.699,-16.636 -27,-27 m 121,-316 21,21 c 2.222,2.227 6.793,5.497 6.793,9 0,7.426 -17.754,19.756 -22.832,25.004 -20.31,20.986 -41.31,41.345 -61.961,61.996 -5.132,5.132 -15.479,20.113 -22.911,20.967 -5.009,0.575 -11.978,-8.857 -15.089,-11.967 -3.511,-3.51 -13.793,-10.641 -13.793,-16 0,-3.812 5.369,-7.575 7.793,-10 l 24,-24 31,-31 c 14.68,-14.68 29.034,-33.049 46,-45 m -300,45 c 15.668,15.668 33.456,30.568 44.573,50 4.577,8.002 7.988,17.003 10.002,26 13.618,60.841 -35.06,99.485 -73.575,138 l -40,40 c -10.093,10.093 -21.65202,19.775 -30.48202,31 -26.567,33.772 -4.053,83.611 36.48202,92 -5.478,11.747 -19.86702,21.867 -29.00002,31 h -1 c -12.513,-10.19 -25.265,-22.585 -34.329,-36 -6.137,-9.083 -10.979,-18.55 -14.327,-29 -14.425,-45.028 7.432,-81.435 37.617,-113 21.344,-22.32 43.19002,-44.151 65.03902,-66 11.653,-11.653 25.141,-22.847 35.1,-36 25.391,-33.535 5.633,-90.346 -39.1,-94 5.717,-12.26 22.297,-25.779 33,-34 m 378,32 v 1 c -40.633,11.531 -66.525,55.673 -40.64,94 11.054,16.369 28.809,30.572 43.216,44 19.022,17.73 37.037,36.613 55.424,55 20.859,20.859 40.394,41.539 44.714,72 4.77,33.622 -8.169,66.849 -31.729,91 -4.256,4.363 -14.576,18.793 -20.985,18.793 -3.503,0 -6.773,-4.571 -9,-6.793 -7.362,-7.346 -17.835,-14.981 -23,-24 40.316,-8.321 65.874,-53.942 40.56,-90 -8.211,-11.696 -20.478,-20.918 -30.56,-31 l -53,-53 c -14.765,-14.765 -32.372,-29.014 -44.572,-46 -19.552,-27.223 -26.174,-64.793 -12.116,-96 11.032,-24.489 32.096,-38.839 48.688,-59 l 33,30 m 9,24.455 c 46.507,-1.061 48.891,72.381 2,73.53 -48.346,1.185 -50.644,-72.419 -2,-73.53 m -435,0.845 c 47.268,-6.814 59.884,65.499 12,72.4 -46.22202,6.661 -58.35502,-65.717 -12,-72.4 m 127,21.7 20,20 c 2.222,2.227 6.793,5.497 6.793,9 0,4.101 -6.176,8.383 -8.793,11 -7.957,7.958 -15.679,15.721 -22.115,25 -16.808,24.231 -24.56,54.601 -21.715,84 2.284,23.603 11.661,46.944 27.13,65 8.371,9.771 25.585,20.996 29.7,33 -31.627,24.911 -58.101,62.969 -60.91,104 -1.022,14.921 1.924,28.534 4.91,43 -10.371,-7.306 -19.036,-18.035 -28,-27 -2.617,-2.617 -8.793,-6.899 -8.793,-11 0,-3.812 5.369,-7.575 7.793,-10 7.75,-7.754 15.418,-15.52 22.385,-24 16.888,-20.554 26.724,-46.545 28.525,-73 2.087,-30.635 -13.181,-60.463 -32.489,-83 -6.347,-7.408 -13.528,-14.104 -20.421,-21 -2.421,-2.422 -6.786,-5.516 -7.654,-9 -0.97,-3.892 4.297,-7.638 6.654,-10 7.3,-7.316 14.867,-14.436 21.91,-22 17.545,-18.842 29.873,-42.411 33.663,-68 1.556,-10.511 -2.426,-26.798 1.427,-36 m 188,2 c -0.716,34.69 3.914,64.783 26.286,93 11.629,14.668 27.976,25.756 38.714,41 -43.424,30.589 -72.396,85.079 -59.105,138 5.3,21.101 16.762,40.932 31.275,57 4.89,5.414 22.623,17.473 22.623,25 0,4.101 -6.176,8.383 -8.793,11 -8.702,8.703 -16.994,19.932 -27,27 9,-38.904 4.905,-72.434 -18.348,-106 -7.744,-11.178 -19.063,-20.411 -28.652,-30 -2.803,-2.803 -9.793,-7.626 -9.793,-12 0,-5.359 10.282,-12.489 13.793,-16 11.673,-11.673 23.133,-23.045 30.63,-38 18.448,-36.801 18.644,-82.962 -4.174,-118 -10.654,-16.36 -27.378,-27.273 -38.456,-43 l 31,-29 m -142,43 31,33 c -35.799,16.963 -57.141,59.827 -28.674,94 29.434,35.335 66.144,66.47 98.674,99 21.296,21.296 43.745,43.249 46.83,75 3.291,33.871 -8.994,64.155 -32.83,88 -4.345,4.346 -14.531,18.793 -20.996,18.793 -4.029,0 -7.58,-6.218 -10.043,-8.793 -8.687,-9.081 -22.609,-17.524 -27.961,-29 41.283,-6.097 64.619,-60.374 37.671,-93 -9.018,-10.919 -20.657,-19.986 -30.671,-30 l -55,-55 c -12.55,-12.55 -26.828,-24.576 -37.255,-39 -18.911,-26.161 -25.264,-61.092 -15.401,-92 2.922,-9.157 6.329,-17.953 11.66,-26 7.512,-11.34 20.542,-29.192 32.996,-35 m 40,55.326 c 45.246,-7.556 56.723,60.998 11,69.209 -43.21,7.761 -54.091,-62.014 -11,-69.209 m -214,104.974 c 46.208,-6.661 58.535,63.526 12,70.399 -45.37102,6.701 -58.07802,-63.756 -12,-70.399 m 430,0.001 c 9.964,-1.472 20.843,-0.015 28.999,6.231 24.202,18.536 14.947,59.707 -15.999,64.168 -44.867,6.468 -58.696,-63.65 -13,-70.399 m -213,113.988 c 45.069,-5.799 55.768,65.884 10,72.541 -48.789,7.097 -59.03,-66.232 -10,-72.541 m 177,52.711 22,22 v 1 l -66,66 -36,37 -24,-21 c 15.303,-21.725 39.195,-40.195 58,-59 14.91,-14.91 28.737,-33.84 46,-46 z"
       id="path2903" />
  </g>
</svg>
